# xmcd
#
# Track frame offsets:
#	150
#	10335
#	24660
#	36975
#	69322
#	96125
#	109725
#	121275
#	137137
#	149197
#
# Disc length: 2173 seconds
#
# Revision: 3
# Processed by: cddbd v1.5.1PL0 Copyright (c) Steve Scherf et al.
# Submitted via: audiograbber 1.83.01
#
DISCID=90087b0a
DTITLE=Various Artist - Blues Greatest
DYEAR=1996
DGENRE=Blues
TTITLE0=Albert Collins - Don't Loose Your Cool
TTITLE1=Lowell Fulson - Reconsider Baby
TTITLE2=John Lee Hooker - I'm In The Mood
TTITLE3=Buddy Guy - Stone Crazy
TTITLE4=B. B. King - Philadelphia`
TTITLE5=Koko Taylor - Wang Dang Doodle
TTITLE6=Irma Thomas - Good To Me
TTITLE7=Bobby Bland - Do What You Set Out To Do
TTITLE8=Little Milton - We're Gonna Make It
TTITLE9=Willie Dixon - Walking The Blues
EXTD=
EXTT0=
EXTT1=
EXTT2=
EXTT3=
EXTT4=
EXTT5=
EXTT6=
EXTT7=
EXTT8=
EXTT9=
PLAYORDER=
